<svg width="48" height="48" viewBox="0 0 48 48" fill="none" xmlns="http://www.w3.org/2000/svg">
<g id="Instagram Outline">
<path id="Vector" d="M6.1234 14.4893C6.21694 12.4453 6.53698 11.127 6.9698 10.008L6.97562 9.99258C7.40453 8.8539 8.07642 7.82237 8.94454 6.96978L8.95672 6.95782L8.96868 6.94563C9.82198 6.0764 10.8539 5.40517 11.9916 4.9774L12.0112 4.96989C13.1276 4.53573 14.4433 4.21687 16.489 4.12335M6.1234 14.4893C6.02506 16.6732 6 17.3502 6 23.0125C6 28.6763 6.02368 29.3516 6.12335 31.5361M6.1234 14.4893L6.1234 15.0402M6.9774 36.0335C7.40517 37.1712 8.0764 38.2031 8.94563 39.0564L8.9578 39.0683L8.96974 39.0805C9.82238 39.9486 10.8539 40.6205 11.9926 41.0495L12.0096 41.0559C13.1271 41.4892 14.4434 41.8082 16.489 41.9017M6.9774 36.0335L6.96989 36.0139C6.53573 34.8974 6.21687 33.5818 6.12335 31.5361M6.9774 36.0335L6.95175 35.8984M6.12335 31.5361L6.15684 31.7124M6.12335 31.5361L6.12335 30.9838M6.95175 35.8984L6.15684 31.7124M6.95175 35.8984C6.61415 35.0065 6.2665 33.7621 6.15684 31.7124M6.95175 35.8984C6.9636 35.9297 6.97543 35.9606 6.98724 35.991C7.41539 37.1453 8.09377 38.1903 8.97363 39.0513C9.83423 39.931 10.8789 40.6092 12.0328 41.0374C12.9588 41.3981 14.2635 41.775 16.4887 41.877C18.7343 41.9792 19.428 42 25.0125 42C30.597 42 31.2914 41.9791 33.537 41.8769C35.7649 41.7748 37.0681 41.3958 37.9908 41.0379C39.1453 40.61 40.1906 39.9315 41.0515 39.0512C41.9311 38.1907 42.6093 37.146 43.0374 35.9922C43.3981 35.0663 43.775 33.7615 43.877 31.5364C43.9792 29.2908 44 28.5956 44 23.0125C44 17.4294 43.9791 16.7337 43.8769 14.4881C43.7743 12.2485 43.3918 10.9434 43.0323 10.0198C42.5623 8.80645 41.9662 7.88875 41.05 6.97255C40.1357 6.05998 39.2204 5.46358 38.0061 4.99309C37.0793 4.63073 35.7732 4.25061 33.537 4.14813C33.3425 4.13928 33.1597 4.13104 32.9842 4.12337M6.15684 31.7124C6.15375 31.6546 6.15084 31.5961 6.14813 31.537C6.13927 31.3423 6.13102 31.1593 6.12335 30.9838M16.489 4.12335C18.6734 4.02368 19.3502 4 25.0125 4C30.6748 4 31.3513 4.02503 33.5352 4.12337M16.489 4.12335L17.0413 4.12335M33.5352 4.12337L32.9842 4.12337M33.5352 4.12337C35.5795 4.21687 36.8979 4.53687 38.0171 4.96973L38.0325 4.97562C39.1712 5.40453 40.2027 6.07642 41.0553 6.94454L41.0671 6.95659L41.0792 6.96844C41.9474 7.82111 42.6193 8.85292 43.0478 9.99191L43.0552 10.0112C43.4893 11.1276 43.8082 12.4433 43.9017 14.489M17.0413 4.12335L32.9842 4.12337M17.0413 4.12335C18.891 4.04247 19.9134 4.02506 25.0125 4.02506C30.1121 4.02506 31.1342 4.04247 32.9842 4.12337M17.0413 4.12335C16.8657 4.13102 16.6827 4.13927 16.4881 4.14813C14.2601 4.25023 12.9569 4.62928 12.0342 4.98716C10.8754 5.41673 9.82662 6.09872 8.96391 6.98373C8.05625 7.89512 7.46215 8.80843 6.99315 10.0188C6.63078 10.9456 6.25059 12.2523 6.1481 14.4887C6.13927 14.6827 6.13105 14.8651 6.1234 15.0402M43.9017 31.5361C43.8082 33.5817 43.4893 34.898 43.0559 36.0155L43.0494 36.0325C42.6205 37.1712 41.9486 38.2027 41.0805 39.0553L41.0683 39.0672L41.0564 39.0794C40.2031 39.9487 39.1712 40.6199 38.0335 41.0477L38.0139 41.0552C36.8974 41.4893 35.5818 41.8082 33.5361 41.9017M6.12335 30.9838C6.04247 29.1341 6.02506 28.1117 6.02506 23.0125C6.02506 17.9118 6.04246 16.8909 6.1234 15.0402M6.12335 30.9838L6.1234 15.0402M21.631 31.1762C22.7031 31.6203 23.8521 31.8488 25.0125 31.8488C27.3561 31.8488 29.6036 30.9179 31.2608 29.2607C32.9179 27.6036 33.8489 25.3561 33.8489 23.0125C33.8489 20.669 32.9179 18.4214 31.2608 16.7643C29.6036 15.1072 27.3561 14.1762 25.0125 14.1762C23.8521 14.1762 22.7031 14.4048 21.631 14.8488C20.559 15.2929 19.5848 15.9438 18.7643 16.7643C17.9438 17.5848 17.2929 18.5589 16.8488 19.631C16.4048 20.7031 16.1762 21.8521 16.1762 23.0125C16.1762 24.1729 16.4048 25.322 16.8488 26.394C17.2929 27.4661 17.9438 28.4402 18.7643 29.2607C19.5848 30.0813 20.559 30.7322 21.631 31.1762ZM18.7446 16.7446C20.407 15.0823 22.6616 14.1484 25.0125 14.1484C27.3635 14.1484 29.6181 15.0823 31.2804 16.7446C32.9428 18.407 33.8767 20.6616 33.8767 23.0125C33.8767 25.3635 32.9428 27.6181 31.2804 29.2804C29.6181 30.9428 27.3635 31.8767 25.0125 31.8767C22.6616 31.8767 20.407 30.9428 18.7446 29.2804C17.0823 27.6181 16.1484 25.3634 16.1484 23.0125C16.1484 20.6616 17.0823 18.407 18.7446 16.7446ZM38.8681 12.0846C38.8681 12.7575 38.6008 13.4028 38.125 13.8786C37.6492 14.3544 37.0038 14.6217 36.331 14.6217C35.6581 14.6217 35.0128 14.3544 34.537 13.8786C34.0612 13.4028 33.7939 12.7575 33.7939 12.0846C33.7939 11.4117 34.0612 10.7664 34.537 10.2906C35.0128 9.8148 35.6581 9.54749 36.331 9.54749C37.0038 9.54749 37.6492 9.8148 38.125 10.2906C38.6008 10.7664 38.8681 11.4117 38.8681 12.0846Z" stroke="#202325" stroke-width="2" stroke-linejoin="round"/>
</g>
</svg>
